<svg width="205" height="54" viewBox="0 0 205 54" fill="none" xmlns="http://www.w3.org/2000/svg">
<g id="logo">
<path id="Vector" d="M74.1379 42.7059H72.3355V25.3104H65.2923V42.7059H63.4895V9.0972H65.2923V23.6939H72.3355V9.0972H74.1379V42.7059ZM81.9501 19.7613C81.1811 19.7613 80.5882 20.0186 80.1715 20.5333C79.7707 21.048 79.5706 21.6753 79.5706 22.4152V30.932H81.9501C82.7033 30.932 83.2803 30.6827 83.6808 30.1841C84.0975 29.6854 84.306 29.0581 84.306 28.3022V19.7613H81.9501ZM86.1084 18.1448V28.1333C86.1084 28.7767 86.0205 29.3718 85.8444 29.9187C85.6678 30.4494 85.4034 30.9159 85.0511 31.318C84.6984 31.704 84.2578 32.0097 83.729 32.2348C83.2163 32.4439 82.6231 32.5485 81.9501 32.5485H79.5706V38.9421C79.5706 39.6819 79.7707 40.3094 80.1715 40.824C80.5882 41.3227 81.1811 41.5719 81.9501 41.5719C82.7033 41.5719 83.2803 41.2825 83.6808 40.7033C84.0975 40.1245 84.306 39.4165 84.306 38.5804L86.0845 38.3149C86.0845 39.0064 85.9963 39.6498 85.8201 40.2448C85.6439 40.8402 85.3795 41.3548 85.0268 41.7889C84.6903 42.2234 84.2578 42.5612 83.729 42.8022C83.2163 43.0599 82.6231 43.1884 81.9501 43.1884C81.2612 43.1884 80.6522 43.0758 80.1234 42.8506C79.6107 42.6254 79.1778 42.3198 78.8255 41.9337C78.4728 41.5317 78.2084 41.0654 78.0322 40.5346C77.8557 39.9875 77.7678 39.4006 77.7678 38.7731V22.56C77.7678 21.9166 77.8557 21.3295 78.0322 20.7987C78.2084 20.2518 78.4728 19.7854 78.8255 19.3993C79.1778 18.9972 79.6107 18.6916 80.1234 18.4825C80.6522 18.2574 81.2612 18.1448 81.9501 18.1448H86.1084ZM89.0171 42.7059V4.9715H90.8199V42.7059H89.0171ZM102.43 38.2906C102.43 38.9181 102.342 39.5051 102.166 40.0518C101.989 40.5826 101.725 41.0492 101.372 41.4512C101.02 41.8373 100.579 42.1429 100.05 42.3681C99.5375 42.5933 98.9443 42.7059 98.2713 42.7059H95.8918V53.4184H94.089V22.5359C94.089 21.9085 94.1769 21.3295 94.3534 20.7987C94.5296 20.2518 94.794 19.7854 95.1467 19.3993C95.4991 18.9972 95.9319 18.6916 96.4446 18.4825C96.9734 18.2574 97.5825 18.1448 98.2713 18.1448H102.43V38.2906ZM100.627 19.7613H98.2713C97.5023 19.7613 96.9094 20.0186 96.4928 20.5333C96.0919 21.048 95.8918 21.6753 95.8918 22.4152V41.0894H98.2713C99.0245 41.0894 99.6015 40.8402 100.002 40.3415C100.419 39.8266 100.627 39.1994 100.627 38.4597V19.7613ZM105.939 42.7059V18.1448H107.742V42.7059H105.939ZM105.699 9.82101C105.699 9.01677 106.083 8.61466 106.853 8.61466C107.221 8.61466 107.51 8.7192 107.718 8.92832C107.943 9.12134 108.055 9.41887 108.055 9.82101C108.055 10.1266 107.95 10.392 107.742 10.6172C107.55 10.8424 107.253 10.955 106.853 10.955C106.484 10.955 106.196 10.8424 105.987 10.6172C105.795 10.392 105.699 10.1266 105.699 9.82101ZM119.761 42.7059H117.958V22.4152C117.958 21.6753 117.749 21.048 117.333 20.5333C116.932 20.0186 116.355 19.7613 115.602 19.7613H113.223V42.7059H111.42V18.1448H115.602C116.275 18.1448 116.868 18.2574 117.381 18.4825C117.91 18.6916 118.35 18.9972 118.703 19.3993C119.055 19.7854 119.32 20.2518 119.496 20.7987C119.673 21.3295 119.761 21.9085 119.761 22.5359V42.7059ZM129.424 42.7059H127.068C126.379 42.7059 125.77 42.5933 125.241 42.3681C124.728 42.1429 124.296 41.8373 123.943 41.4512C123.591 41.0492 123.326 40.5826 123.15 40.0518C122.974 39.5051 122.885 38.9181 122.885 38.2906V18.1448H127.068C127.741 18.1448 128.334 18.2574 128.847 18.4825C129.375 18.6916 129.816 18.9972 130.169 19.3993C130.521 19.7854 130.786 20.2518 130.962 20.7987C131.138 21.3295 131.226 21.9085 131.226 22.5359V49.4855C131.226 50.1127 131.138 50.6919 130.962 51.2227C130.786 51.7694 130.521 52.236 130.169 52.6221C129.816 53.0241 129.375 53.3379 128.847 53.5631C128.334 53.7882 127.733 53.9008 127.044 53.9008C126.371 53.9008 125.77 53.772 125.241 53.5147C124.728 53.2733 124.296 52.9355 123.943 52.5014C123.607 52.0669 123.35 51.5524 123.174 50.9573C122.998 50.3622 122.91 49.7188 122.91 49.0271L124.688 49.2925C124.688 50.1289 124.889 50.8366 125.289 51.4158C125.706 51.9946 126.291 52.2844 127.044 52.2844C127.813 52.2844 128.398 52.0271 128.799 51.5121C129.215 51.0134 129.424 50.3944 129.424 49.6546V42.7059ZM124.688 38.4597C124.688 39.1994 124.889 39.8266 125.289 40.3415C125.706 40.8402 126.299 41.0894 127.068 41.0894H129.424V22.4152C129.424 21.6753 129.215 21.048 128.799 20.5333C128.398 20.0186 127.821 19.7613 127.068 19.7613H124.688V38.4597ZM133.871 37.1326H135.673V38.9421C135.673 39.6819 135.873 40.3094 136.274 40.824C136.691 41.3227 137.284 41.5719 138.053 41.5719C138.806 41.5719 139.383 41.3227 139.784 40.824C140.2 40.3094 140.408 39.6819 140.408 38.9421V35.9022C140.408 35.3714 140.321 34.8808 140.144 34.4304C139.984 33.9639 139.76 33.5216 139.471 33.1034C139.199 32.6691 138.878 32.259 138.51 31.8729C138.157 31.4869 137.797 31.1009 137.428 30.7148C136.979 30.2645 136.538 29.8061 136.106 29.3396C135.689 28.8732 135.313 28.3826 134.976 27.8679C134.64 27.3371 134.367 26.7822 134.159 26.2031C133.967 25.6241 133.871 24.9968 133.871 24.3213V22.0774C133.871 21.434 133.959 20.847 134.135 20.3162C134.311 19.7693 134.576 19.3028 134.928 18.9168C135.281 18.5147 135.713 18.2091 136.226 18C136.755 17.7748 137.364 17.6622 138.053 17.6622C138.726 17.6622 139.319 17.7748 139.832 18C140.361 18.2091 140.801 18.5147 141.154 18.9168C141.506 19.3028 141.771 19.7693 141.947 20.3162C142.123 20.847 142.211 21.434 142.211 22.0774V24.0558H140.408V21.9327C140.408 21.1928 140.2 20.5655 139.784 20.0508C139.383 19.5361 138.806 19.2787 138.053 19.2787C137.284 19.2787 136.691 19.5361 136.274 20.0508C135.873 20.5655 135.673 21.1928 135.673 21.9327V24.3213C135.673 24.8681 135.761 25.3828 135.938 25.8654C136.114 26.3318 136.338 26.7741 136.611 27.1923C136.899 27.6105 137.22 28.0207 137.572 28.4228C137.941 28.8088 138.309 29.1949 138.678 29.5809C139.126 30.0473 139.559 30.5138 139.976 30.9802C140.408 31.4467 140.785 31.9373 141.106 32.452C141.442 32.9667 141.707 33.5136 141.899 34.0926C142.107 34.6556 142.211 35.2587 142.211 35.9022V38.7731C142.211 39.4006 142.123 39.9875 141.947 40.5346C141.771 41.0654 141.506 41.5317 141.154 41.9337C140.801 42.3198 140.361 42.6254 139.832 42.8506C139.319 43.0758 138.726 43.1884 138.053 43.1884C137.364 43.1884 136.755 43.0758 136.226 42.8506C135.713 42.6254 135.281 42.3198 134.928 41.9337C134.576 41.5317 134.311 41.0654 134.135 40.5346C133.959 39.9875 133.871 39.4006 133.871 38.7731V37.1326ZM145.192 19.7613H143.197V18.1448H145.192V15.1048H146.995V18.1448H150.288V19.7613H146.995V38.9181C146.995 39.6579 147.195 40.2851 147.596 40.8C147.996 41.2984 148.581 41.5479 149.35 41.5479H150.144V43.1884H149.35C148.661 43.1884 148.053 43.0758 147.524 42.8506C147.011 42.6254 146.578 42.3198 146.225 41.9337C145.889 41.5317 145.633 41.0654 145.456 40.5346C145.28 39.9875 145.192 39.4006 145.192 38.7731V19.7613ZM156.009 41.0894C156.778 41.0894 157.363 40.8321 157.764 40.3172C158.18 39.8026 158.388 39.1754 158.388 38.4353V29.9187H156.009C155.256 29.9187 154.671 30.168 154.254 30.6666C153.853 31.1652 153.653 31.7925 153.653 32.5485V41.0894H156.009ZM151.85 42.7059V32.7174C151.85 32.074 151.938 31.4869 152.115 30.9561C152.291 30.4092 152.556 29.9428 152.908 29.5567C153.261 29.1546 153.693 28.849 154.206 28.6399C154.735 28.4148 155.336 28.3022 156.009 28.3022H158.388V21.9085C158.388 21.1687 158.18 20.5494 157.764 20.0508C157.363 19.5361 156.778 19.2787 156.009 19.2787C155.256 19.2787 154.671 19.5683 154.254 20.1473C153.853 20.7263 153.653 21.4341 153.653 22.2705L151.874 22.5359C151.874 21.8442 151.962 21.2008 152.139 20.6057C152.315 20.0106 152.571 19.4959 152.908 19.0616C153.261 18.6273 153.693 18.2895 154.206 18.0483C154.735 17.7909 155.336 17.6622 156.009 17.6622C156.698 17.6622 157.299 17.7748 157.811 18C158.34 18.2252 158.781 18.5388 159.133 18.9409C159.486 19.327 159.751 19.7934 159.927 20.3403C160.103 20.8711 160.191 21.4501 160.191 22.0774V38.2906C160.191 38.934 160.103 39.5291 159.927 40.0761C159.751 40.6069 159.486 41.0732 159.133 41.4755C158.781 41.8613 158.34 42.1669 157.811 42.3921C157.299 42.6014 156.698 42.7059 156.009 42.7059H151.85ZM168.388 19.6165C168.147 19.5522 167.859 19.52 167.523 19.52C166.753 19.52 166.16 19.7773 165.744 20.292C165.343 20.8068 165.143 21.434 165.143 22.174V42.7059H163.34V22.3187C163.34 21.6753 163.428 21.0882 163.604 20.5575C163.781 20.0106 164.045 19.5441 164.398 19.1581C164.75 18.756 165.183 18.4504 165.696 18.2413C166.224 18.0161 166.833 17.9035 167.523 17.9035C167.811 17.9035 168.092 17.9276 168.364 17.9759C168.636 18.008 168.884 18.0643 169.109 18.1448L168.388 19.6165ZM170.816 19.7613H168.82V18.1448H170.816V15.1048H172.618V18.1448H175.911V19.7613H172.618V38.9181C172.618 39.6579 172.819 40.2851 173.219 40.8C173.62 41.2984 174.205 41.5479 174.974 41.5479H175.767V43.1884H174.974C174.285 43.1884 173.676 43.0758 173.147 42.8506C172.634 42.6254 172.202 42.3198 171.849 41.9337C171.513 41.5317 171.256 41.0654 171.08 40.5346C170.904 39.9875 170.816 39.4006 170.816 38.7731V19.7613ZM181.897 19.7613C181.128 19.7613 180.535 20.0186 180.118 20.5333C179.717 21.048 179.517 21.6753 179.517 22.4152V30.932H181.897C182.65 30.932 183.227 30.6827 183.627 30.1841C184.044 29.6854 184.252 29.0581 184.252 28.3022V19.7613H181.897ZM186.055 18.1448V28.1333C186.055 28.7767 185.967 29.3718 185.791 29.9187C185.614 30.4494 185.35 30.9159 184.998 31.318C184.645 31.704 184.204 32.0097 183.675 32.2348C183.163 32.4439 182.57 32.5485 181.897 32.5485H179.517V38.9421C179.517 39.6819 179.717 40.3094 180.118 40.824C180.535 41.3227 181.128 41.5719 181.897 41.5719C182.65 41.5719 183.227 41.2825 183.627 40.7033C184.044 40.1245 184.252 39.4165 184.252 38.5804L186.031 38.3149C186.031 39.0064 185.943 39.6498 185.767 40.2448C185.59 40.8402 185.326 41.3548 184.974 41.7889C184.637 42.2234 184.204 42.5612 183.675 42.8022C183.163 43.0599 182.57 43.1884 181.897 43.1884C181.208 43.1884 180.599 43.0758 180.07 42.8506C179.557 42.6254 179.124 42.3198 178.772 41.9337C178.419 41.5317 178.155 41.0654 177.979 40.5346C177.803 39.9875 177.714 39.4006 177.714 38.7731V22.56C177.714 21.9166 177.803 21.3295 177.979 20.7987C178.155 20.2518 178.419 19.7854 178.772 19.3993C179.124 18.9972 179.557 18.6916 180.07 18.4825C180.599 18.2574 181.208 18.1448 181.897 18.1448H186.055ZM194.012 19.6165C193.771 19.5522 193.483 19.52 193.146 19.52C192.377 19.52 191.784 19.7773 191.367 20.292C190.967 20.8068 190.766 21.434 190.766 22.174V42.7059H188.964V22.3187C188.964 21.6753 189.052 21.0882 189.228 20.5575C189.404 20.0106 189.669 19.5441 190.021 19.1581C190.374 18.756 190.806 18.4504 191.319 18.2413C191.848 18.0161 192.457 17.9035 193.146 17.9035C193.435 17.9035 193.715 17.9276 193.987 17.9759C194.26 18.008 194.508 18.0643 194.732 18.1448L194.012 19.6165ZM195.406 37.1326H197.208V38.9421C197.208 39.6819 197.409 40.3094 197.809 40.824C198.226 41.3227 198.819 41.5719 199.588 41.5719C200.341 41.5719 200.918 41.3227 201.319 40.824C201.735 40.3094 201.944 39.6819 201.944 38.9421V35.9022C201.944 35.3714 201.856 34.8808 201.679 34.4304C201.519 33.9639 201.295 33.5216 201.006 33.1034C200.734 32.6691 200.413 32.259 200.045 31.8729C199.692 31.4869 199.332 31.1009 198.963 30.7148C198.515 30.2645 198.074 29.8061 197.641 29.3396C197.224 28.8732 196.848 28.3826 196.511 27.8679C196.175 27.3371 195.902 26.7822 195.694 26.2031C195.502 25.6241 195.406 24.9968 195.406 24.3213V22.0774C195.406 21.434 195.494 20.847 195.67 20.3162C195.846 19.7693 196.111 19.3028 196.463 18.9168C196.816 18.5147 197.248 18.2091 197.761 18C198.29 17.7748 198.899 17.6622 199.588 17.6622C200.261 17.6622 200.854 17.7748 201.367 18C201.896 18.2091 202.336 18.5147 202.689 18.9168C203.041 19.3028 203.306 19.7693 203.482 20.3162C203.659 20.847 203.746 21.434 203.746 22.0774V24.0558H201.944V21.9327C201.944 21.1928 201.735 20.5655 201.319 20.0508C200.918 19.5361 200.341 19.2787 199.588 19.2787C198.819 19.2787 198.226 19.5361 197.809 20.0508C197.409 20.5655 197.208 21.1928 197.208 21.9327V24.3213C197.208 24.8681 197.297 25.3828 197.473 25.8654C197.649 26.3318 197.874 26.7741 198.146 27.1923C198.434 27.6105 198.755 28.0207 199.107 28.4228C199.476 28.8088 199.844 29.1949 200.213 29.5809C200.662 30.0473 201.094 30.5138 201.511 30.9802C201.944 31.4467 202.32 31.9373 202.641 32.452C202.977 32.9667 203.242 33.5136 203.434 34.0926C203.642 34.6556 203.746 35.2587 203.746 35.9022V38.7731C203.746 39.4006 203.659 39.9875 203.482 40.5346C203.306 41.0654 203.041 41.5317 202.689 41.9337C202.336 42.3198 201.896 42.6254 201.367 42.8506C200.854 43.0758 200.261 43.1884 199.588 43.1884C198.899 43.1884 198.29 43.0758 197.761 42.8506C197.248 42.6254 196.816 42.3198 196.463 41.9337C196.111 41.5317 195.846 41.0654 195.67 40.5346C195.494 39.9875 195.406 39.4006 195.406 38.7731V37.1326Z" fill="#030F1A"/>
<path id="Vector_2" d="M15.9829 8.95116C14.4166 15.8625 8.98202 21.3173 2.09643 22.8895C0.879914 23.1675 0 24.2236 0 25.4765V30.6214C0 32.2655 1.48155 33.5158 3.09428 33.2258C7.23678 32.4796 11.0745 30.8396 14.398 28.5119C17.1968 26.554 19.6311 24.1105 21.5818 21.3013C24.2798 17.42 26.0529 12.8391 26.5711 7.89107C26.6294 7.33508 26.2 6.84827 25.6434 6.84827H18.5591C17.3121 6.84827 16.2586 7.73147 15.9816 8.9525L15.9829 8.95116Z" fill="url(#paint0_linear_3_4)"/>
<path id="Vector_3" d="M29.3367 48.2107C29.2784 48.7641 29.7064 49.2498 30.2617 49.2498H37.3473C38.5956 49.2498 39.648 48.3653 39.9247 47.1441C41.4884 40.23 46.9232 34.7793 53.8113 33.2071C55.0279 32.9291 55.9091 31.873 55.9091 30.62V25.4752C55.9091 23.8311 54.4277 22.5808 52.8162 22.8708C48.6736 23.6156 44.8345 25.2543 41.5109 27.5861C38.7123 29.5387 36.278 31.9874 34.3273 34.7913C31.6279 38.6778 29.8562 43.2614 29.338 48.2096L29.3367 48.2107Z" fill="url(#paint1_linear_3_4)"/>
<path id="Vector_4" d="M37.3487 6.84686H30.2643C29.7078 6.84686 29.2784 7.33367 29.3367 7.88966C29.8549 12.8364 31.6266 17.4173 34.326 21.2999C36.2766 24.1091 38.7109 26.5526 41.5099 28.5105C44.8335 30.8382 48.6722 32.4796 52.8133 33.2244C54.4263 33.5144 55.9077 32.2641 55.9077 30.6201V25.4752C55.9077 24.2235 55.0279 23.1661 53.8113 22.8881C46.9257 21.3159 41.4912 15.861 39.9247 8.94979C39.648 7.72872 38.5956 6.84552 37.3473 6.84552L37.3487 6.84686Z" fill="url(#paint2_linear_3_4)"/>
<path id="Vector_5" d="M21.5831 34.7926C19.6325 31.9874 17.1981 29.54 14.3993 27.5874C11.0758 25.2557 7.23678 23.617 3.09428 22.8721C1.48155 22.5821 0.00132751 23.8325 0.00132751 25.4765V30.6214C0.00132751 31.873 0.882569 32.9304 2.09908 33.2084C8.98733 34.7793 14.4232 40.2314 15.9856 47.1455C16.2612 48.3664 17.3147 49.2508 18.563 49.2508H25.6487C26.204 49.2508 26.6307 48.7655 26.5737 48.2121C26.0556 43.2642 24.2838 38.682 21.5844 34.7939L21.5831 34.7926Z" fill="url(#paint3_linear_3_4)"/>
</g>
<defs>
<linearGradient id="paint0_linear_3_4" x1="13.2882" y1="6.84827" x2="13.2882" y2="33.2678" gradientUnits="userSpaceOnUse">
<stop stop-color="#221ECA"/>
<stop offset="1" stop-color="#00ECFF"/>
</linearGradient>
<linearGradient id="paint1_linear_3_4" x1="42.6203" y1="22.8288" x2="42.6203" y2="49.2498" gradientUnits="userSpaceOnUse">
<stop stop-color="#221ECA"/>
<stop offset="1" stop-color="#00ECFF"/>
</linearGradient>
<linearGradient id="paint2_linear_3_4" x1="42.6196" y1="6.84552" x2="42.6196" y2="33.2664" gradientUnits="userSpaceOnUse">
<stop stop-color="#221ECA"/>
<stop offset="1" stop-color="#00ECFF"/>
</linearGradient>
<linearGradient id="paint3_linear_3_4" x1="13.2901" y1="22.8301" x2="13.2901" y2="49.2508" gradientUnits="userSpaceOnUse">
<stop stop-color="#221ECA"/>
<stop offset="1" stop-color="#00ECFF"/>
</linearGradient>
</defs>
</svg>
